<svg xmlns="http://www.w3.org/2000/svg" xmlns:xlink="http://www.w3.org/1999/xlink" version="1.1" width="940" height="788" viewBox="0 0 940 788" xml:space="preserve">
<desc>Created with Fabric.js 3.5.0</desc>
<defs>
</defs>
<rect x="0" y="0" width="100%" height="100%" fill="rgba(32,35,41,0)"/>
<g transform="matrix(1 0 0 1 470 410.1228)" style="" id="31236">
		
<path xml:space="preserve" font-family="norwester" font-size="164" font-style="normal" font-weight="normal" style="stroke: none; stroke-width: 1; stroke-dasharray: none; stroke-linecap: butt; stroke-dashoffset: 0; stroke-linejoin: miter; stroke-miterlimit: 4; is-custom-font: true; font-file-url: https://cdn.pixelied.com/user-assets/fonts/571a4f4c-d892-4781-a741-9f093e77b331.otf; fill: rgb(255,255,255); fill-opacity: 0.95; fill-rule: nonzero; opacity: 1; white-space: pre;" d="M-353.26-56.07C-353.26-71.48-361.62-79.68-377.04-79.68L-416.40-79.68C-418.04-79.68-419.02-78.86-419.02-77.06L-419.02 48.89C-419.02 50.53-418.04 51.52-416.40 51.52L-377.04 51.52C-361.62 51.52-353.26 43.32-353.26 27.90L-353.26-2.27C-353.26-8.34-357.68-12.93-363.59-13.92L-363.59-14.24C-357.68-15.23-353.26-19.82-353.26-25.89ZM-375.07-31.30C-375.07-27.20-377.36-24.91-381.63-24.91L-396.55-24.91L-396.55-58.03L-381.63-58.03C-377.20-58.03-375.07-55.74-375.07-51.47ZM-375.07 23.31C-375.07 27.74-377.36 29.87-381.63 29.87L-396.55 29.87L-396.55-3.26L-381.63-3.26C-377.20-3.26-375.07-0.96-375.07 3.30ZM-313.24-79.68C-328.49-79.68-336.86-71.48-336.86-56.07L-336.86-17.36C-336.86-14.24-335.38-12.28-332.43-11.29L-293.56 1.50L-293.56 23.31C-293.56 27.74-295.86 29.87-300.12 29.87L-307.99 29.87C-312.09 29.87-314.55 27.74-314.55 23.31L-314.55 10.68C-314.55 8.88-315.37 8.06-317.18 8.06L-334.23 8.06C-335.87 8.06-336.86 8.88-336.86 10.68L-336.86 27.90C-336.86 43.32-328.49 51.52-313.24 51.52L-294.87 51.52C-279.46 51.52-271.26 43.32-271.26 27.90L-271.26-9.98C-271.26-13.10-272.73-14.90-275.52-16.05L-314.55-28.84L-314.55-51.47C-314.55-55.74-312.09-58.03-307.99-58.03L-300.12-58.03C-295.69-58.03-293.56-55.74-293.56-51.47L-293.56-38.68C-293.56-37.04-292.58-36.06-290.94-36.06L-273.88-36.06C-272.08-36.06-271.26-37.04-271.26-38.68L-271.26-56.07C-271.26-71.48-279.46-79.68-294.87-79.68ZM-190.24-79.68C-205.49-79.68-213.86-71.48-213.86-56.07L-213.86-17.36C-213.86-14.24-212.38-12.28-209.43-11.29L-170.56 1.50L-170.56 23.31C-170.56 27.74-172.86 29.87-177.12 29.87L-184.99 29.87C-189.09 29.87-191.55 27.74-191.55 23.31L-191.55 10.68C-191.55 8.88-192.37 8.06-194.18 8.06L-211.23 8.06C-212.87 8.06-213.86 8.88-213.86 10.68L-213.86 27.90C-213.86 43.32-205.49 51.52-190.24 51.52L-171.87 51.52C-156.46 51.52-148.26 43.32-148.26 27.90L-148.26-9.98C-148.26-13.10-149.73-14.90-152.52-16.05L-191.55-28.84L-191.55-51.47C-191.55-55.74-189.09-58.03-184.99-58.03L-177.12-58.03C-172.69-58.03-170.56-55.74-170.56-51.47L-170.56-38.68C-170.56-37.04-169.58-36.06-167.94-36.06L-150.88-36.06C-149.08-36.06-148.26-37.04-148.26-38.68L-148.26-56.07C-148.26-71.48-156.46-79.68-171.87-79.68ZM-66.09-56.07C-66.09-71.48-74.46-79.68-89.71-79.68L-108.08-79.68C-123.49-79.68-131.86-71.48-131.86-56.07L-131.86 27.90C-131.86 43.32-123.49 51.52-108.08 51.52L-89.71 51.52C-74.46 51.52-66.09 43.32-66.09 27.90L-66.09 10.19C-66.09 8.55-67.08 7.57-68.72 7.57L-85.12 7.57C-86.92 7.57-87.74 8.55-87.74 10.19L-87.74 23.31C-87.74 27.74-90.04 29.87-94.30 29.87L-102.83 29.87C-107.09 29.87-109.39 27.74-109.39 23.31L-109.39-51.47C-109.39-55.74-107.26-58.03-102.83-58.03L-94.30-58.03C-90.04-58.03-87.74-55.74-87.74-51.47L-87.74-38.35C-87.74-36.71-86.92-35.73-85.12-35.73L-68.72-35.73C-67.08-35.73-66.09-36.71-66.09-38.35ZM-6.40-24.91L-27.39-24.91L-27.39-77.06C-27.39-78.70-28.37-79.68-30.01-79.68L-46.90-79.68C-48.87-79.68-49.69-78.70-49.69-77.06L-49.69 48.89C-49.69 50.53-48.87 51.52-46.90 51.52L-30.01 51.52C-28.37 51.52-27.39 50.53-27.39 48.89L-27.39-3.26L-6.40-3.26L-6.40 48.89C-6.40 50.53-5.41 51.52-3.77 51.52L13.12 51.52C15.09 51.52 15.91 50.53 15.91 48.89L15.91-77.06C15.91-78.70 15.09-79.68 13.12-79.68L-3.77-79.68C-5.41-79.68-6.40-78.70-6.40-77.06ZM97.74-77.06C97.74-78.70 97.09-79.68 95.12-79.68L34.77-79.68C33.29-79.68 32.31-78.70 32.31-77.06L32.31 48.89C32.31 50.53 33.29 51.52 34.77 51.52L95.12 51.52C97.09 51.52 97.74 50.53 97.74 48.89L97.74 32.49C97.74 30.69 97.09 29.87 95.12 29.87L54.12 29.87L54.12-3.26L85.44-3.26C87.08-3.26 88.07-4.24 88.07-6.05L88.07-22.28C88.07-24.09 87.08-25.07 85.44-25.07L54.12-25.07L54.12-57.87L95.12-57.87C97.09-57.87 97.74-59.02 97.74-60.66ZM112.50 48.89C112.50 50.70 113.32 51.52 115.13 51.52L154.49 51.52C169.90 51.52 178.10 43.32 178.10 27.90L178.10-55.90C178.10-71.32 169.90-79.68 154.49-79.68L115.13-79.68C113.32-79.68 112.50-78.70 112.50-77.06ZM134.81 29.87L134.81-58.03L149.90-58.03C154.16-58.03 156.46-55.74 156.46-51.31L156.46 23.31C156.46 27.74 154.16 29.87 149.90 29.87ZM241.74-79.68C239.93-79.68 238.46-78.21 238.46-76.40L238.46 23.31C238.46 27.74 236.16 29.87 231.90 29.87L223.37 29.87C219.10 29.87 216.81 27.74 216.81 23.31L216.81-76.40C216.81-78.21 215.33-79.68 213.53-79.68L197.78-79.68C195.98-79.68 194.50-78.21 194.50-76.40L194.50 27.90C194.50 43.32 202.70 51.52 218.12 51.52L236.49 51.52C251.90 51.52 260.10 43.32 260.10 27.90L260.10-76.40C260.10-78.21 258.63-79.68 256.82-79.68ZM298.81 29.87L337.84 29.87C339.64 29.87 340.46 30.85 340.46 32.49L340.46 48.89C340.46 50.70 339.64 51.52 337.84 51.52L279.13 51.52C277.49 51.52 276.50 50.70 276.50 48.89L276.50-77.06C276.50-78.70 277.49-79.68 279.13-79.68L296.18-79.68C297.99-79.68 298.81-78.70 298.81-77.06ZM419.02-77.06C419.02-78.70 418.36-79.68 416.40-79.68L356.04-79.68C354.57-79.68 353.58-78.70 353.58-77.06L353.58 48.89C353.58 50.53 354.57 51.52 356.04 51.52L416.40 51.52C418.36 51.52 419.02 50.53 419.02 48.89L419.02 32.49C419.02 30.69 418.36 29.87 416.40 29.87L375.40 29.87L375.40-3.26L406.72-3.26C408.36-3.26 409.34-4.24 409.34-6.05L409.34-22.28C409.34-24.09 408.36-25.07 406.72-25.07L375.40-25.07L375.40-57.87L416.40-57.87C418.36-57.87 419.02-59.02 419.02-60.66Z"/></g>
<g transform="matrix(4.1664 0 0 4.1664 470 261.2819)" id="556789">
<g style="" vector-effect="non-scaling-stroke">
		<g transform="matrix(1 0 0 1 0 -0.0008)">
<path style="stroke: none; stroke-width: 1; stroke-dasharray: none; stroke-linecap: butt; stroke-dashoffset: 0; stroke-linejoin: miter; stroke-miterlimit: 4; is-custom-font: none; font-file-url: none; fill: rgb(251,191,36); fill-opacity: 0.95; fill-rule: nonzero; opacity: 1;" transform=" translate(-12, -11.9992)" d="M 7.8294 2.43983 C 7.52083 1.98179 6.89937 1.86062 6.44132 2.16919 C 5.98328 2.47776 5.86211 3.09922 6.17068 3.55726 L 10.9634 10.6715 L 8.63676 14.3491 C 8.13715 14.1248 7.58315 14 7 14 C 4.79086 14 3 15.7909 3 18 C 3 20.2091 4.79086 22 7 22 C 9.20914 22 11 20.2091 11 18 C 11 17.1033 10.705 16.2756 10.2067 15.6085 L 12.1839 12.4832 L 14.0676 15.2795 C 13.4051 15.9932 13 16.9493 13 18 C 13 20.2091 14.7909 22 17 22 C 19.2091 22 21 20.2091 21 18 C 21 15.7909 19.2091 14 17 14 C 16.5639 14 16.1441 14.0698 15.7511 14.1988 L 12.1319 8.82451 L 12.1313 8.8255 L 7.8294 2.43983 Z M 5 18 C 5 16.8954 5.89543 16 7 16 C 8.10457 16 9 16.8954 9 18 C 9 19.1046 8.10457 20 7 20 C 5.89543 20 5 19.1046 5 18 Z M 15 18 C 15 16.8954 15.8954 16 17 16 C 18.1046 16 19 16.8954 19 18 C 19 19.1046 18.1046 20 17 20 C 15.8954 20 15 19.1046 15 18 Z" stroke-linecap="round"/>
</g>
		<g transform="matrix(1 0 0 1 3.65 -6.605)">
<path style="stroke: none; stroke-width: 1; stroke-dasharray: none; stroke-linecap: butt; stroke-dashoffset: 0; stroke-linejoin: miter; stroke-miterlimit: 4; is-custom-font: none; font-file-url: none; fill: rgb(251,191,36); fill-opacity: 0.95; fill-rule: nonzero; opacity: 1;" transform=" translate(-15.65, -5.3951)" d="M 14.5202 8.79027 L 17.8452 3.53461 C 18.1404 3.06789 18.0014 2.45017 17.5347 2.15489 C 17.068 1.85962 16.4503 1.99861 16.155 2.46534 L 13.2998 6.97841 L 14.5202 8.79027 Z" stroke-linecap="round"/>
</g>
</g>
</g>
<g transform="matrix(1 0 0 1 470 523.6989)" style="" id="23119">
		
<path xml:space="preserve" font-family="Aldrich" font-size="50" font-style="normal" font-weight="normal" style="stroke: none; stroke-width: 1; stroke-dasharray: none; stroke-linecap: butt; stroke-dashoffset: 0; stroke-linejoin: miter; stroke-miterlimit: 4; is-custom-font: none; font-file-url: https://cdn.pixelied.com/user-assets/fonts/571a4f4c-d892-4781-a741-9f093e77b331.otf; fill: rgb(251,191,36); fill-rule: nonzero; opacity: 1; white-space: pre;" d="M-159.72-2.55L-159.72-2.55Q-158.62-2.21-157.71-1.58Q-156.81-0.94-156.18 0.05Q-155.54 1.03-155.20 2.38Q-154.86 3.72-154.86 5.45L-154.86 5.45L-154.86 7.21Q-154.86 15.71-163.35 15.71L-163.35 15.71L-182.52 15.71L-182.52-19.30L-164.36-19.30Q-155.86-19.30-155.86-10.78L-155.86-10.78L-155.86-10.15Q-155.86-7.19-156.80-5.33Q-157.74-3.46-159.72-2.55ZM-163.50 0.45L-177.61 0.45L-177.61 10.80L-163.50 10.80Q-161.52 10.80-160.64 9.87Q-159.77 8.94-159.77 6.97L-159.77 6.97L-159.77 4.26Q-159.77 2.25-160.64 1.35Q-161.52 0.45-163.50 0.45L-163.50 0.45ZM-164.50-14.40L-177.61-14.40L-177.61-4.43L-164.16-4.43Q-162.35-4.51-161.56-5.42Q-160.77-6.34-160.77-8.24L-160.77-8.24L-160.77-10.54Q-160.77-12.54-161.65-13.47Q-162.52-14.40-164.50-14.40L-164.50-14.40ZM-136.87-19.30L-131.86-19.30L-118.36 15.71L-123.36 15.71L-126.46 7.65L-142.26 7.65L-145.36 15.71L-150.37 15.71L-136.87-19.30ZM-134.35-12.78L-140.36 2.65L-128.39 2.65L-134.35-12.78ZM-84.69-10.78L-84.69-6.80Q-84.69 0.52-90.94 1.55L-90.94 1.55L-84.35 15.71L-89.89 15.71L-96.39 1.72L-107.35 1.72L-107.35 15.71L-112.35 15.71L-112.35-19.30L-93.19-19.30Q-84.69-19.30-84.69-10.78L-84.69-10.78ZM-107.35-14.30L-107.35-3.29L-93.46-3.29Q-91.46-3.29-90.58-4.17Q-89.70-5.04-89.70-7.05L-89.70-7.05L-89.70-10.54Q-89.70-12.54-90.58-13.42Q-91.46-14.30-93.46-14.30L-93.46-14.30L-107.35-14.30ZM-53.54-2.55L-53.54-2.55Q-52.44-2.21-51.54-1.58Q-50.63-0.94-50.00 0.05Q-49.37 1.03-49.02 2.38Q-48.68 3.72-48.68 5.45L-48.68 5.45L-48.68 7.21Q-48.68 15.71-57.18 15.71L-57.18 15.71L-76.34 15.71L-76.34-19.30L-58.18-19.30Q-49.68-19.30-49.68-10.78L-49.68-10.78L-49.68-10.15Q-49.68-7.19-50.62-5.33Q-51.56-3.46-53.54-2.55ZM-57.32 0.45L-71.44 0.45L-71.44 10.80L-57.32 10.80Q-55.35 10.80-54.47 9.87Q-53.59 8.94-53.59 6.97L-53.59 6.97L-53.59 4.26Q-53.59 2.25-54.47 1.35Q-55.35 0.45-57.32 0.45L-57.32 0.45ZM-58.33-14.40L-71.44-14.40L-71.44-4.43L-57.98-4.43Q-56.18-4.51-55.38-5.42Q-54.59-6.34-54.59-8.24L-54.59-8.24L-54.59-10.54Q-54.59-12.54-55.47-13.47Q-56.35-14.40-58.33-14.40L-58.33-14.40ZM-41.19 15.71L-41.19-19.30L-15.67-19.30L-15.67-14.30L-36.18-14.30L-36.18-4.29L-18.68-4.29L-18.68 0.72L-36.18 0.72L-36.18 10.70L-15.67 10.70L-15.67 15.71L-41.19 15.71ZM19.48-10.78L19.48-6.80Q19.48 0.52 13.23 1.55L13.23 1.55L19.82 15.71L14.28 15.71L7.79 1.72L-3.17 1.72L-3.17 15.71L-8.18 15.71L-8.18-19.30L10.99-19.30Q19.48-19.30 19.48-10.78L19.48-10.78ZM-3.17-14.30L-3.17-3.29L10.72-3.29Q12.72-3.29 13.60-4.17Q14.48-5.04 14.48-7.05L14.48-7.05L14.48-10.54Q14.48-12.54 13.60-13.42Q12.72-14.30 10.72-14.30L10.72-14.30L-3.17-14.30ZM64.82 0.72L47.83 0.72Q46.80 0.72 45.89 0.31Q44.97-0.09 44.29-0.76Q43.60-1.43 43.21-2.35Q42.82-3.26 42.82-4.29L42.82-4.29L42.82-14.30Q42.82-15.32 43.21-16.24Q43.60-17.15 44.29-17.83Q44.97-18.50 45.89-18.90Q46.80-19.30 47.83-19.30L47.83-19.30L64.82-19.30Q65.84-19.30 66.76-18.90Q67.68-18.50 68.36-17.83Q69.04-17.15 69.43-16.24Q69.82-15.32 69.82-14.30L69.82-14.30L69.82-9.78L64.82-9.78L64.82-14.30L47.83-14.30L47.83-4.29L64.82-4.29Q65.84-4.29 66.76-3.90Q67.68-3.51 68.36-2.82Q69.04-2.14 69.43-1.22Q69.82-0.31 69.82 0.72L69.82 0.72L69.82 10.70Q69.82 11.73 69.43 12.64Q69.04 13.56 68.36 14.24Q67.68 14.93 66.76 15.32Q65.84 15.71 64.82 15.71L64.82 15.71L47.34 15.71Q46.31 15.71 45.40 15.32Q44.48 14.93 43.80 14.24Q43.12 13.56 42.72 12.64Q42.33 11.73 42.33 10.70L42.33 10.70L42.33 6.21L47.34 6.21L47.34 10.70L64.82 10.70L64.82 0.72ZM103.88-19.30L108.89-19.30L108.89 15.71L103.88 15.71L103.88 0.72L83.84 0.72L83.84 15.71L78.83 15.71L78.83-19.30L83.84-19.30L83.84-4.29L103.88-4.29L103.88-19.30ZM147.88-14.30L147.88 10.70Q147.88 11.73 147.49 12.64Q147.09 13.56 146.41 14.24Q145.73 14.93 144.81 15.32Q143.90 15.71 142.87 15.71L142.87 15.71L122.88 15.71Q121.85 15.71 120.94 15.32Q120.02 14.93 119.34 14.24Q118.65 13.56 118.26 12.64Q117.87 11.73 117.87 10.70L117.87 10.70L117.87-14.30Q117.87-15.32 118.26-16.24Q118.65-17.15 119.34-17.83Q120.02-18.50 120.94-18.90Q121.85-19.30 122.88-19.30L122.88-19.30L142.87-19.30Q143.90-19.30 144.81-18.90Q145.73-18.50 146.41-17.83Q147.09-17.15 147.49-16.24Q147.88-15.32 147.88-14.30L147.88-14.30ZM142.87-14.30L122.88-14.30L122.88 10.70L142.87 10.70L142.87-14.30ZM161.87 15.71L156.86 15.71L156.86-19.30L176.03-19.30Q184.52-19.30 184.52-10.78L184.52-10.78L184.52-5.80Q184.52 2.72 176.03 2.72L176.03 2.72L161.87 2.72L161.87 15.71ZM161.87-14.30L161.87-2.29L175.76-2.29Q177.76-2.29 178.64-3.17Q179.52-4.04 179.52-6.05L179.52-6.05L179.52-10.54Q179.52-12.54 178.64-13.42Q177.76-14.30 175.76-14.30L175.76-14.30L161.87-14.30Z"/></g>
<g transform="matrix(1 0 0 1 310.1752 261.2819)" style="" id="482967">
		
<path xml:space="preserve" font-family="Aldrich" font-size="45" font-style="normal" font-weight="normal" style="stroke: none; stroke-width: 1; stroke-dasharray: none; stroke-linecap: butt; stroke-dashoffset: 0; stroke-linejoin: miter; stroke-miterlimit: 4; is-custom-font: none; font-file-url: https://cdn.pixelied.com/user-assets/fonts/571a4f4c-d892-4781-a741-9f093e77b331.otf; fill: rgb(251,191,36); fill-rule: nonzero; opacity: 1; white-space: pre;" d="M-20.31 0.65L-35.61 0.65Q-36.53 0.65-37.35 0.28Q-38.18-0.08-38.79-0.68Q-39.41-1.29-39.76-2.11Q-40.11-2.94-40.11-3.86L-40.11-3.86L-40.11-12.87Q-40.11-13.79-39.76-14.61Q-39.41-15.44-38.79-16.04Q-38.18-16.65-37.35-17.01Q-36.53-17.37-35.61-17.37L-35.61-17.37L-20.31-17.37Q-19.39-17.37-18.57-17.01Q-17.74-16.65-17.13-16.04Q-16.51-15.44-16.16-14.61Q-15.81-13.79-15.81-12.87L-15.81-12.87L-15.81-8.80L-20.31-8.80L-20.31-12.87L-35.61-12.87L-35.61-3.86L-20.31-3.86Q-19.39-3.86-18.57-3.51Q-17.74-3.16-17.13-2.54Q-16.51-1.93-16.16-1.10Q-15.81-0.28-15.81 0.65L-15.81 0.65L-15.81 9.63Q-15.81 10.55-16.16 11.38Q-16.51 12.20-17.13 12.82Q-17.74 13.43-18.57 13.78Q-19.39 14.14-20.31 14.14L-20.31 14.14L-36.05 14.14Q-36.97 14.14-37.79 13.78Q-38.62 13.43-39.23 12.82Q-39.85 12.20-40.20 11.38Q-40.55 10.55-40.55 9.63L-40.55 9.63L-40.55 5.59L-36.05 5.59L-36.05 9.63L-20.31 9.63L-20.31 0.65ZM-7.70-17.37L-3.20-17.37L-3.20 14.14L-7.70 14.14L-7.70-17.37ZM9.39-10.30L9.39 14.14L4.89 14.14L4.89-17.37L9.39-17.37L28.33 7.06L28.33-17.37L32.84-17.37L32.84 14.14L28.33 14.14L9.39-10.30ZM40.92 9.63L40.92-12.87Q40.92-13.79 41.28-14.61Q41.63-15.44 42.24-16.04Q42.86-16.65 43.68-17.01Q44.51-17.37 45.43-17.37L45.43-17.37L62.52-17.37Q63.45-17.37 64.27-17.01Q65.09-16.65 65.71-16.04Q66.32-15.44 66.68-14.61Q67.03-13.79 67.03-12.87L67.03-12.87L67.03-8.80L62.52-8.80L62.52-12.87L45.43-12.87L45.43 9.63L62.52 9.63L62.52 5.59L67.03 5.59L67.03 9.63Q67.03 10.55 66.68 11.38Q66.32 12.20 65.71 12.82Q65.09 13.43 64.27 13.78Q63.45 14.14 62.52 14.14L62.52 14.14L45.43 14.14Q44.51 14.14 43.68 13.78Q42.86 13.43 42.24 12.82Q41.63 12.20 41.28 11.38Q40.92 10.55 40.92 9.63L40.92 9.63ZM74.23 14.14L74.23-17.37L97.20-17.37L97.20-12.87L78.74-12.87L78.74-3.86L94.49-3.86L94.49 0.65L78.74 0.65L78.74 9.63L97.20 9.63L97.20 14.14L74.23 14.14Z"/></g>
<g transform="matrix(1 0 0 1 627.7722 261.2819)" style="" id="350714">
		
<path xml:space="preserve" font-family="Aldrich" font-size="48" font-style="normal" font-weight="normal" style="stroke: none; stroke-width: 1; stroke-dasharray: none; stroke-linecap: butt; stroke-dashoffset: 0; stroke-linejoin: miter; stroke-miterlimit: 4; is-custom-font: none; font-file-url: https://cdn.pixelied.com/user-assets/fonts/571a4f4c-d892-4781-a741-9f093e77b331.otf; fill: rgb(251,191,36); fill-rule: nonzero; opacity: 1; white-space: pre;" d="M-98.47-18.53L-87.90-18.53L-87.90 15.08L-92.70 15.08L-92.70-13.73L-98.47-13.73L-98.47-18.53ZM-71.28-4.26L-61.88-4.26Q-60.13-4.33-59.38-5.21Q-58.63-6.09-58.63-7.91L-58.63-7.91L-58.63-10.12Q-58.63-12.04-59.47-12.93Q-60.31-13.82-62.21-13.82L-62.21-13.82L-70.95-13.82Q-72.85-13.82-73.70-12.93Q-74.54-12.04-74.54-10.12L-74.54-10.12L-74.54-7.91Q-74.54-6.09-73.78-5.21Q-73.02-4.33-71.28-4.26L-71.28-4.26ZM-71.42 10.37L-61.74 10.37Q-59.82 10.37-58.98 9.48Q-58.13 8.59-58.13 6.69L-58.13 6.69L-58.13 4.09Q-58.13 2.16-58.98 1.30Q-59.82 0.43-61.74 0.43L-61.74 0.43L-71.42 0.43Q-73.34 0.43-74.19 1.30Q-75.03 2.16-75.03 4.09L-75.03 4.09L-75.03 6.69Q-75.03 8.59-74.19 9.48Q-73.34 10.37-71.42 10.37L-71.42 10.37ZM-61.58 15.08L-71.56 15.08Q-79.74 15.08-79.74 6.92L-79.74 6.92L-79.74 5.23Q-79.74 2.09-78.62 0.20Q-77.49-1.70-75.36-2.34L-75.36-2.34Q-77.26-3.23-78.25-5.07Q-79.25-6.91-79.25-9.74L-79.25-9.74L-79.25-10.35Q-79.25-18.53-71.09-18.53L-71.09-18.53L-62.07-18.53Q-53.91-18.53-53.91-10.35L-53.91-10.35L-53.91-9.74Q-53.91-6.91-54.91-5.07Q-55.91-3.23-57.81-2.34L-57.81-2.34Q-55.67-1.70-54.55 0.20Q-53.42 2.09-53.42 5.23L-53.42 5.23L-53.42 6.92Q-53.42 15.08-61.58 15.08L-61.58 15.08ZM-20.80-13.73L-20.80 10.27Q-20.80 11.26-21.17 12.14Q-21.55 13.02-22.20 13.67Q-22.86 14.33-23.74 14.70Q-24.62 15.08-25.60 15.08L-25.60 15.08L-40.95 15.08Q-41.94 15.08-42.82 14.70Q-43.70 14.33-44.35 13.67Q-45.01 13.02-45.38 12.14Q-45.76 11.26-45.76 10.27L-45.76 10.27L-45.76 5.96L-40.95 5.96L-40.95 10.27L-25.60 10.27L-25.60 0.69L-40.95 0.69Q-41.94 0.69-42.82 0.30Q-43.70-0.09-44.35-0.73Q-45.01-1.37-45.38-2.25Q-45.76-3.13-45.76-4.12L-45.76-4.12L-45.76-13.73Q-45.76-14.71-45.38-15.59Q-45.01-16.47-44.35-17.11Q-43.70-17.76-42.82-18.14Q-41.94-18.53-40.95-18.53L-40.95-18.53L-25.60-18.53Q-24.62-18.53-23.74-18.14Q-22.86-17.76-22.20-17.11Q-21.55-16.47-21.17-15.59Q-20.80-14.71-20.80-13.73L-20.80-13.73ZM-40.95-4.12L-25.60-4.12L-25.60-13.73L-40.95-13.73L-40.95-4.12ZM-4.65-4.26L4.75-4.26Q6.51-4.33 7.26-5.21Q8.01-6.09 8.01-7.91L8.01-7.91L8.01-10.12Q8.01-12.04 7.16-12.93Q6.32-13.82 4.42-13.82L4.42-13.82L-4.32-13.82Q-6.22-13.82-7.06-12.93Q-7.91-12.04-7.91-10.12L-7.91-10.12L-7.91-7.91Q-7.91-6.09-7.14-5.21Q-6.38-4.33-4.65-4.26L-4.65-4.26ZM-4.79 10.37L4.89 10.37Q6.81 10.37 7.66 9.48Q8.50 8.59 8.50 6.69L8.50 6.69L8.50 4.09Q8.50 2.16 7.66 1.30Q6.81 0.43 4.89 0.43L4.89 0.43L-4.79 0.43Q-6.71 0.43-7.56 1.30Q-8.40 2.16-8.40 4.09L-8.40 4.09L-8.40 6.69Q-8.40 8.59-7.56 9.48Q-6.71 10.37-4.79 10.37L-4.79 10.37ZM5.05 15.08L-4.93 15.08Q-13.11 15.08-13.11 6.92L-13.11 6.92L-13.11 5.23Q-13.11 2.09-11.98 0.20Q-10.86-1.70-8.73-2.34L-8.73-2.34Q-10.63-3.23-11.62-5.07Q-12.62-6.91-12.62-9.74L-12.62-9.74L-12.62-10.35Q-12.62-18.53-4.46-18.53L-4.46-18.53L4.56-18.53Q12.72-18.53 12.72-10.35L12.72-10.35L12.72-9.74Q12.72-6.91 11.72-5.07Q10.73-3.23 8.83-2.34L8.83-2.34Q10.96-1.70 12.09 0.20Q13.21 2.09 13.21 5.23L13.21 5.23L13.21 6.92Q13.21 15.08 5.05 15.08L5.05 15.08Z"/></g>
</svg>